<?xml version="1.0" encoding="UTF-8" standalone="no"?>
<!DOCTYPE svg PUBLIC "-//W3C//DTD SVG 1.1//EN" "http://www.w3.org/Graphics/SVG/1.1/DTD/svg11.dtd">
<!-- Created with Vectornator (http://vectornator.io/) -->
<svg height="100%" stroke-miterlimit="10" style="fill-rule:nonzero;clip-rule:evenodd;stroke-linecap:round;stroke-linejoin:round;" version="1.1" viewBox="0 0 24 24" width="100%" xml:space="preserve" xmlns="http://www.w3.org/2000/svg" xmlns:xlink="http://www.w3.org/1999/xlink">
<defs/>
<g id="Senza-Titolo">
<path d="M6 2C4.89543 2 4 2.89543 4 4L4 20C4 21.1046 4.89543 22 6 22L18 22C19.1046 22 20 21.1046 20 20L20 9.82777C20 9.29733 19.7893 8.78863 19.4142 8.41355L13.5864 2.58579C13.2114 2.21071 12.7027 2 12.1722 2L6 2ZM5.5 4C5.5 3.72386 5.72386 3.5 6 3.5L12 3.5L12 8C12 9.10457 12.8954 10 14 10L18.5 10L18.5 20C18.5 20.2761 18.2761 20.5 18 20.5L6 20.5C5.72386 20.5 5.5 20.2761 5.5 20L5.5 4ZM17.3793 8.5L14 8.5C13.7239 8.5 13.5 8.27614 13.5 8L13.5 4.62066L17.3793 8.5Z" fill="#b18c47" fill-rule="nonzero" opacity="1" stroke="none"/>
<path d="M7.86818 5.11165C7.97287 5.11165 8.05774 5.19652 8.05774 5.3012C8.05774 5.39638 7.9876 5.47517 7.89619 5.48871L7.86818 5.49076L7.29951 5.49076C6.81096 5.49076 6.41492 5.88681 6.41492 6.37536C6.41492 6.84647 6.78318 7.23154 7.24754 7.25846L7.29951 7.25995L7.86818 7.25995C7.97287 7.25995 8.05774 7.34482 8.05774 7.44951C8.05774 7.54469 7.9876 7.62347 7.89619 7.63702L7.86818 7.63906L7.29951 7.63906C6.60159 7.63906 6.03581 7.07328 6.03581 6.37536C6.03581 5.69858 6.56782 5.14606 7.23644 5.1132L7.29951 5.11165L7.86818 5.11165ZM9.82693 5.11165C10.5248 5.11165 11.0906 5.67743 11.0906 6.37536C11.0906 7.05212 10.5586 7.60464 9.88999 7.63752L9.82693 7.63906L9.25826 7.63906C9.15357 7.63906 9.0687 7.55419 9.0687 7.44951C9.0687 7.35433 9.13884 7.27555 9.23026 7.262L9.25826 7.25995L9.82693 7.25995C10.3155 7.25995 10.7115 6.86391 10.7115 6.37536C10.7115 5.90425 10.3433 5.51917 9.87892 5.49226L9.82693 5.49076L9.25826 5.49076C9.15357 5.49076 9.0687 5.40589 9.0687 5.3012C9.0687 5.20603 9.13884 5.12724 9.23026 5.1137L9.25826 5.11165L9.82693 5.11165ZM7.29951 6.1858L9.82693 6.1858C9.93161 6.1858 10.0165 6.27067 10.0165 6.37536C10.0165 6.47132 9.94516 6.55063 9.85266 6.56319L9.82693 6.56491L7.29951 6.56491C7.19482 6.56491 7.10996 6.48004 7.10996 6.37536C7.10996 6.27939 7.18127 6.20008 7.27379 6.18752L7.29951 6.1858L9.82693 6.1858L7.29951 6.1858Z" fill="#b18c47" fill-rule="nonzero" opacity="1" stroke="none"/>
<path d="M11.7909 10.673C11.692 10.6359 11.5811 10.6496 11.4943 10.7098C11.4074 10.77 11.3556 10.869 11.3556 10.9746L11.3556 16.1845C11.0614 15.9487 10.688 15.8076 10.2816 15.8076C9.33257 15.8076 8.56322 16.577 8.56322 17.526C8.56322 18.475 9.33257 19.2444 10.2816 19.2444C11.1671 19.2444 11.8962 18.5746 11.9898 17.714C11.9965 17.6882 12 17.6612 12 17.6334L12 13.5876L15.0015 14.7131C15.1004 14.7502 15.2112 14.7365 15.2981 14.6762C15.385 14.616 15.4368 14.5171 15.4368 14.4114L15.4368 13.0077C15.4368 12.4257 15.0757 11.9048 14.5308 11.7004L11.7909 10.673Z" fill="#b18c47" fill-rule="nonzero" opacity="1" stroke="none"/>
</g>
</svg>
